<?xml version="1.0" encoding="UTF-8" standalone="no"?>
<!-- Generator: Adobe Illustrator 15.0.0, SVG Export Plug-In . SVG Version: 6.00 Build 0)  -->

<svg
   xmlns:dc="http://purl.org/dc/elements/1.1/"
   xmlns:cc="http://creativecommons.org/ns#"
   xmlns:rdf="http://www.w3.org/1999/02/22-rdf-syntax-ns#"
   xmlns:svg="http://www.w3.org/2000/svg"
   xmlns="http://www.w3.org/2000/svg"
   xmlns:sodipodi="http://sodipodi.sourceforge.net/DTD/sodipodi-0.dtd"
   xmlns:inkscape="http://www.inkscape.org/namespaces/inkscape"
   version="1.1"
   x="0px"
   y="0px"
   width="457.36328"
   height="306.42542"
   viewBox="-279.5 -213 457.36328 306.42542"
   enable-background="new -279.5 -213 801 662"
   xml:space="preserve"
   id="svg2"
   inkscape:version="0.91 r13725"
   sodipodi:docname="twitter_words.svg"><metadata
     id="metadata52"><rdf:RDF><cc:Work
         rdf:about=""><dc:format>image/svg+xml</dc:format><dc:type
           rdf:resource="http://purl.org/dc/dcmitype/StillImage" /><dc:title></dc:title><cc:license
           rdf:resource="http://creativecommons.org/licenses/by-nc-sa/3.0/" /></cc:Work><cc:License
         rdf:about="http://creativecommons.org/licenses/by-nc-sa/3.0/"><cc:permits
           rdf:resource="http://creativecommons.org/ns#Reproduction" /><cc:permits
           rdf:resource="http://creativecommons.org/ns#Distribution" /><cc:requires
           rdf:resource="http://creativecommons.org/ns#Notice" /><cc:requires
           rdf:resource="http://creativecommons.org/ns#Attribution" /><cc:prohibits
           rdf:resource="http://creativecommons.org/ns#CommercialUse" /><cc:permits
           rdf:resource="http://creativecommons.org/ns#DerivativeWorks" /><cc:requires
           rdf:resource="http://creativecommons.org/ns#ShareAlike" /></cc:License></rdf:RDF></metadata><defs
     id="defs50" /><sodipodi:namedview
     pagecolor="#ffffff"
     bordercolor="#666666"
     borderopacity="1"
     objecttolerance="10"
     gridtolerance="10"
     guidetolerance="10"
     inkscape:pageopacity="0"
     inkscape:pageshadow="2"
     inkscape:window-width="1800"
     inkscape:window-height="1070"
     id="namedview48"
     showgrid="false"
     inkscape:snap-global="false"
     inkscape:zoom="2.1022243"
     inkscape:cx="279.54612"
     inkscape:cy="138.69456"
     inkscape:window-x="113"
     inkscape:window-y="26"
     inkscape:window-maximized="0"
     inkscape:current-layer="svg2"
     fit-margin-top="0"
     fit-margin-left="0"
     fit-margin-right="0"
     fit-margin-bottom="0" /><g
     id="Layer_3"
     transform="matrix(1.0017807,0,0,1,-277.44557,-130.64308)"><path
       d="M 507.114,-45.677 C 452.276,145.58 342.276,-67.42 235.5,-41.677"
       id="path8"
       inkscape:connector-curvature="0"
       style="fill:none" /><g
       id="g10"><g
         id="g12"><path
           d="m 210.951,-23.161 16.996,-17.832 7.718,7.356 -0.31,0.369 c -2.104,-1.658 -4.315,-2.658 -6.636,-3 -2.682,-0.339 -4.873,0.383 -6.575,2.169 l -0.757,0.794 11.615,11.071 c 1.844,1.758 3.641,1.718 5.391,-0.118 l 2.189,-2.297 0.425,0.404 -12.659,13.281 -0.425,-0.404 2.169,-2.275 c 1.757,-1.844 1.714,-3.644 -0.13,-5.4 l -11.615,-11.071 -0.935,0.979 c -1.729,1.814 -2.284,4.097 -1.665,6.848 0.302,1.354 0.892,2.727 1.769,4.117 0.303,0.468 0.808,1.129 1.516,1.984 l -0.362,0.381 -7.719,-7.356 z"
           id="path14"
           inkscape:connector-curvature="0"
           style="fill:#ffffff" /><path
           d="m 233.337,-46.613 8.997,-6.212 0.341,0.44 c -0.729,0.516 -1.199,0.986 -1.41,1.412 -0.211,0.427 -0.178,0.842 0.102,1.246 0.273,0.396 0.636,0.762 1.086,1.096 l 10.632,7.59 -2.531,-11.209 c -0.87,-0.643 -1.551,-1.086 -2.043,-1.331 -0.492,-0.245 -1.019,-0.412 -1.579,-0.5 -0.513,-0.108 -0.972,-0.114 -1.374,-0.02 -0.403,0.096 -0.832,0.301 -1.286,0.613 l -0.315,-0.458 9.38,-6.477 0.316,0.458 -0.458,0.315 c -0.742,0.513 -1.232,1.038 -1.472,1.574 -0.238,0.537 -0.192,1.044 0.138,1.522 0.222,0.321 0.49,0.587 0.806,0.796 l 10.74,7.588 -2.775,-11.827 c -0.166,-0.628 -0.389,-1.145 -0.667,-1.549 -0.428,-0.619 -0.988,-0.914 -1.682,-0.886 -0.693,0.027 -1.552,0.377 -2.575,1.047 l -0.341,-0.44 6.942,-4.794 0.316,0.458 c -0.439,0.352 -0.763,0.682 -0.971,0.989 -0.208,0.309 -0.393,0.707 -0.554,1.196 -0.317,1.023 -0.301,2.309 0.05,3.857 l 4.104,17.563 -0.457,0.316 -13.623,-9.618 3.747,16.438 -0.482,0.333 -14.453,-10.233 c -1.298,-0.943 -2.409,-1.504 -3.335,-1.681 -0.927,-0.177 -1.781,0.006 -2.565,0.547 l -0.434,0.299 -0.315,-0.458 z"
           id="path16"
           inkscape:connector-curvature="0"
           style="fill:#ffffff" /><path
           d="m 278.049,-50.565 0.55,-0.204 c 1.213,-0.45 2.004,-1.078 2.373,-1.884 0.369,-0.805 0.329,-1.814 -0.121,-3.026 -0.113,-0.536 -0.221,-1.007 -0.323,-1.412 -0.103,-0.406 -0.242,-0.862 -0.42,-1.368 -0.178,-0.507 -0.412,-1.139 -0.704,-1.896 -1.23,-3.2 -2.224,-5.586 -2.978,-7.156 -0.3,-0.637 -0.596,-1.11 -0.888,-1.419 -0.291,-0.31 -0.637,-0.528 -1.038,-0.657 -0.748,-0.289 -1.687,-0.225 -2.814,0.194 l -0.55,0.204 -0.194,-0.521 12.407,-4.605 0.194,0.521 -0.55,0.204 c -1.213,0.45 -2.003,1.075 -2.369,1.874 -0.366,0.799 -0.322,1.81 0.131,3.031 l 4.255,11.463 c 0.45,1.212 1.078,2.003 1.884,2.372 0.805,0.37 1.81,0.331 3.013,-0.115 l 0.55,-0.204 0.204,0.55 -12.407,4.605 -0.205,-0.551 z"
           id="path18"
           inkscape:connector-curvature="0"
           style="fill:#ffffff" /><path
           d="m 292.321,-77.158 24.486,-2.693 1.166,10.599 -0.476,0.083 c -0.54,-2.624 -1.588,-4.813 -3.143,-6.568 -1.833,-1.987 -3.975,-2.847 -6.427,-2.576 l -1.091,0.119 1.755,15.951 c 0.278,2.531 1.678,3.658 4.199,3.381 l 3.154,-0.347 0.064,0.582 -18.237,2.007 -0.064,-0.583 3.124,-0.344 c 2.531,-0.278 3.658,-1.684 3.38,-4.215 l -1.755,-15.95 -1.346,0.147 c -2.491,0.274 -4.386,1.663 -5.685,4.166 -0.642,1.23 -1.074,2.66 -1.298,4.288 -0.07,0.553 -0.11,1.385 -0.119,2.495 l -0.523,0.058 -1.164,-10.6 z"
           id="path20"
           inkscape:connector-curvature="0"
           style="fill:#ffffff" /><path
           d="m 332.228,-78.807 24.084,5.177 -2.24,10.425 -0.477,-0.071 c 0.314,-2.66 0.013,-5.068 -0.908,-7.226 -1.111,-2.464 -2.873,-3.955 -5.284,-4.474 l -1.073,-0.23 -3.372,15.688 c -0.535,2.489 0.438,4.001 2.917,4.534 l 3.103,0.667 -0.123,0.573 -17.938,-3.855 0.124,-0.573 3.072,0.66 c 2.49,0.535 4.003,-0.442 4.538,-2.932 l 3.371,-15.688 -1.323,-0.285 c -2.45,-0.526 -4.687,0.192 -6.709,2.158 -0.997,0.965 -1.859,2.185 -2.586,3.658 -0.241,0.502 -0.541,1.278 -0.9,2.33 l -0.515,-0.111 2.239,-10.425 z"
           id="path22"
           inkscape:connector-curvature="0"
           style="fill:#ffffff" /><path
           d="m 368.303,-69.329 20.43,9.058 -3.297,7.438 -0.413,-0.183 c 0.201,-1.468 0.296,-2.591 0.285,-3.369 -0.012,-0.778 -0.128,-1.563 -0.348,-2.351 -0.273,-0.943 -0.684,-1.712 -1.231,-2.307 -0.921,-0.967 -2.188,-1.809 -3.8,-2.523 l -3.781,-1.676 -4.047,9.129 1.017,0.451 c 1.513,0.67 3.002,0.552 4.468,-0.355 0.755,-0.466 1.447,-1.113 2.078,-1.941 0.285,-0.346 0.644,-0.883 1.076,-1.612 l 0.481,0.214 -5.583,12.594 -0.481,-0.214 c 0.19,-0.727 0.344,-1.424 0.459,-2.092 0.114,-0.667 0.161,-1.23 0.14,-1.689 -0.021,-0.459 -0.095,-0.941 -0.222,-1.447 -0.374,-1.383 -1.321,-2.412 -2.843,-3.087 l -0.798,-0.354 -3.81,8.593 3.162,1.402 c 0.936,0.414 1.806,0.721 2.611,0.919 0.805,0.198 1.568,0.29 2.289,0.274 0.719,-0.016 1.439,-0.132 2.161,-0.35 1.235,-0.362 2.353,-1.002 3.352,-1.919 0.573,-0.525 1.261,-1.272 2.064,-2.244 l 0.509,0.226 -3.505,7.905 -20.912,-9.271 0.198,-0.521 0.522,0.231 c 2.328,1.032 4.013,0.375 5.053,-1.972 l 4.955,-11.178 c 0.528,-1.191 0.635,-2.197 0.318,-3.018 -0.317,-0.821 -1.07,-1.494 -2.262,-2.022 l -0.522,-0.231 0.227,-0.508 z"
           id="path24"
           inkscape:connector-curvature="0"
           style="fill:#ffffff" /><path
           d="m 405.809,-38.619 -4.088,-2.363 -2.943,5.09 c -0.643,1.111 -0.849,2.098 -0.618,2.961 0.231,0.863 0.901,1.616 2.013,2.258 l 0.533,0.31 -0.293,0.507 -11.483,-6.64 0.294,-0.508 0.494,0.286 c 1.12,0.647 2.107,0.857 2.964,0.628 0.856,-0.229 1.608,-0.902 2.256,-2.022 l 6.12,-10.585 c 0.652,-1.128 0.865,-2.116 0.639,-2.966 -0.228,-0.85 -0.905,-1.601 -2.033,-2.253 l -0.495,-0.286 0.278,-0.481 14.101,8.153 c 1.909,1.104 3.339,2.116 4.289,3.036 0.95,0.92 1.561,1.898 1.83,2.935 0.157,0.589 0.199,1.203 0.124,1.844 -0.075,0.64 -0.258,1.212 -0.549,1.715 -0.793,1.371 -2.142,2.062 -4.047,2.072 -0.695,-0.02 -1.563,-0.181 -2.605,-0.481 -1.042,-0.302 -2.037,-0.674 -2.984,-1.118 -0.716,-0.344 -1.777,-0.923 -3.184,-1.736 l -0.029,0.053 c 0.433,0.853 0.847,1.59 1.24,2.211 0.393,0.621 0.817,1.2 1.272,1.734 0.455,0.536 0.999,1.097 1.633,1.683 l 0.054,0.899 c 0.045,0.583 0.077,1.018 0.096,1.307 0.018,0.288 0.041,0.62 0.067,0.994 0.06,1.02 0.151,1.927 0.276,2.723 0.124,0.796 0.268,1.385 0.428,1.768 0.349,0.699 1.048,1.353 2.099,1.96 l 0.508,0.294 -0.294,0.508 -6.822,-3.945 -1.141,-12.545 z m -3.81,-2.846 5.182,2.996 c 1.224,0.708 2.314,1.139 3.273,1.294 0.959,0.154 1.808,0.038 2.548,-0.351 0.74,-0.389 1.389,-1.064 1.946,-2.028 1.596,-2.76 0.636,-5.156 -2.879,-7.188 l -5.26,-3.042 -4.81,8.319 z"
           id="path26"
           inkscape:connector-curvature="0"
           style="fill:#ffffff" /></g><g
         id="g28"><path
           d="m 300.348,-27.396 10.059,5.432 -0.205,0.447 c -0.826,-0.437 -1.479,-0.668 -1.957,-0.695 -0.48,-0.028 -0.822,0.148 -1.027,0.53 -0.202,0.372 -0.332,0.812 -0.389,1.313 l -1.066,11.736 8.41,-6.145 c 0.105,-0.967 0.137,-1.704 0.095,-2.209 -0.043,-0.506 -0.172,-1.013 -0.386,-1.52 -0.172,-0.475 -0.404,-0.867 -0.697,-1.175 -0.292,-0.309 -0.691,-0.601 -1.198,-0.874 l 0.232,-0.432 10.487,5.662 -0.233,0.432 -0.512,-0.275 c -0.831,-0.449 -1.54,-0.68 -2.129,-0.689 -0.59,-0.013 -1.007,0.207 -1.25,0.658 -0.164,0.304 -0.255,0.627 -0.272,0.969 l -1.01,11.829 8.819,-6.57 c 0.459,-0.365 0.792,-0.738 0.998,-1.12 0.314,-0.583 0.279,-1.165 -0.104,-1.743 -0.384,-0.58 -1.132,-1.186 -2.244,-1.816 l 0.204,-0.446 7.762,4.191 -0.232,0.431 c -0.534,-0.246 -0.988,-0.404 -1.362,-0.471 -0.375,-0.066 -0.817,-0.082 -1.325,-0.045 -1.053,0.095 -2.158,0.568 -3.32,1.418 l -13.105,9.742 -0.513,-0.277 1.274,-15 -12.316,9.038 -0.539,-0.291 1.381,-15.924 c 0.145,-1.439 0.055,-2.583 -0.273,-3.433 -0.328,-0.851 -0.929,-1.512 -1.805,-1.985 l -0.484,-0.262 0.232,-0.431 z"
           id="path30"
           inkscape:connector-curvature="0"
           style="fill:#ffffff" /><path
           d="m 347.77,-3.006 c 1.865,0.863 3.453,1.904 4.768,3.121 1.313,1.217 2.317,2.571 3.013,4.063 0.581,1.263 0.901,2.52 0.958,3.769 0.057,1.249 -0.158,2.399 -0.646,3.45 -0.731,1.58 -1.937,2.791 -3.613,3.631 -1.678,0.842 -3.607,1.229 -5.789,1.164 -2.182,-0.066 -4.356,-0.602 -6.524,-1.605 -1.656,-0.766 -3.111,-1.709 -4.367,-2.826 -1.256,-1.116 -2.252,-2.336 -2.992,-3.658 -0.739,-1.32 -1.172,-2.663 -1.297,-4.027 -0.125,-1.363 0.084,-2.631 0.626,-3.803 0.72,-1.556 1.931,-2.76 3.63,-3.609 1.698,-0.85 3.635,-1.252 5.808,-1.205 2.173,0.047 4.313,0.557 6.425,1.535 z m 0.17,0.606 c -0.865,-0.402 -1.739,-0.652 -2.622,-0.754 -0.883,-0.104 -1.693,-0.042 -2.433,0.181 -0.805,0.241 -1.569,0.615 -2.296,1.122 -0.725,0.507 -1.389,1.141 -1.988,1.9 -0.599,0.759 -1.129,1.633 -1.586,2.619 -0.572,1.236 -0.932,2.436 -1.078,3.6 -0.146,1.165 -0.085,2.256 0.184,3.271 0.269,1.015 0.736,1.912 1.405,2.689 0.668,0.777 1.521,1.406 2.558,1.886 1.406,0.652 2.789,0.881 4.145,0.685 1.355,-0.195 2.604,-0.795 3.742,-1.796 1.141,-1.002 2.111,-2.369 2.914,-4.103 0.52,-1.123 0.854,-2.244 1.004,-3.364 0.148,-1.12 0.105,-2.175 -0.129,-3.165 -0.234,-0.99 -0.657,-1.885 -1.27,-2.685 -0.295,-0.409 -0.672,-0.804 -1.133,-1.183 -0.46,-0.378 -0.931,-0.679 -1.417,-0.903 z"
           id="path32"
           inkscape:connector-curvature="0"
           style="fill:#ffffff" /><path
           d="m 374.611,18.159 -4.709,-1.48 -1.555,4.946 c -0.34,1.08 -0.279,1.984 0.184,2.714 0.463,0.73 1.335,1.296 2.615,1.698 l 0.614,0.193 -0.155,0.493 -13.229,-4.159 0.155,-0.494 0.569,0.18 c 1.291,0.404 2.33,0.442 3.121,0.111 0.791,-0.33 1.357,-1.039 1.699,-2.127 l 3.234,-10.285 c 0.345,-1.098 0.29,-2.004 -0.166,-2.722 -0.455,-0.718 -1.333,-1.281 -2.633,-1.69 l -0.57,-0.179 0.148,-0.468 16.242,5.107 c 2.2,0.692 3.896,1.374 5.092,2.047 1.195,0.672 2.067,1.446 2.615,2.323 0.316,0.498 0.523,1.035 0.622,1.612 0.099,0.578 0.07,1.113 -0.083,1.602 -0.418,1.332 -1.576,2.146 -3.47,2.439 -0.698,0.087 -1.606,0.075 -2.726,-0.036 -1.119,-0.11 -2.209,-0.292 -3.273,-0.543 -0.806,-0.198 -2.019,-0.552 -3.639,-1.062 l -0.016,0.051 c 0.662,0.69 1.272,1.281 1.832,1.772 0.561,0.491 1.139,0.939 1.737,1.345 0.597,0.406 1.29,0.821 2.08,1.246 l 0.296,0.787 c 0.203,0.51 0.352,0.891 0.449,1.143 0.096,0.252 0.209,0.543 0.336,0.87 0.334,0.894 0.67,1.683 1.01,2.368 0.34,0.687 0.642,1.187 0.905,1.502 0.535,0.566 1.408,1.041 2.618,1.421 l 0.586,0.184 -0.156,0.493 -7.858,-2.472 -4.521,-10.93 z m -4.561,-1.948 5.969,1.877 c 1.411,0.443 2.612,0.662 3.61,0.655 0.996,-0.007 1.811,-0.237 2.442,-0.692 0.631,-0.453 1.095,-1.148 1.39,-2.085 0.843,-2.682 -0.761,-4.659 -4.811,-5.933 l -6.059,-1.906 -2.541,8.084 z"
           id="path34"
           inkscape:connector-curvature="0"
           style="fill:#ffffff" /><path
           d="m 393.943,14.625 14.567,0.494 c 2.366,0.08 4.425,0.4 6.173,0.959 1.748,0.559 3.207,1.375 4.377,2.451 1.059,0.93 1.866,1.965 2.42,3.107 0.553,1.142 0.811,2.305 0.77,3.489 -0.044,1.298 -0.404,2.489 -1.08,3.572 -0.676,1.083 -1.613,2.007 -2.808,2.771 -1.196,0.765 -2.603,1.339 -4.22,1.722 -1.617,0.384 -3.359,0.542 -5.223,0.479 l -15.604,-0.529 0.018,-0.517 0.802,0.026 c 1.352,0.047 2.363,-0.196 3.037,-0.727 0.673,-0.529 1.029,-1.364 1.068,-2.504 l 0.365,-10.775 c 0.039,-1.148 -0.258,-2.008 -0.889,-2.578 -0.631,-0.57 -1.627,-0.879 -2.988,-0.924 l -0.802,-0.027 0.017,-0.489 z m 9.412,0.81 -0.594,17.509 4.242,0.144 c 1.205,0.042 2.229,0.019 3.07,-0.067 0.842,-0.087 1.581,-0.25 2.219,-0.488 0.638,-0.24 1.199,-0.564 1.685,-0.972 1.79,-1.435 2.737,-3.702 2.843,-6.804 0.033,-1.017 -0.041,-1.98 -0.225,-2.895 -0.184,-0.912 -0.469,-1.721 -0.854,-2.424 -0.385,-0.703 -0.879,-1.325 -1.479,-1.868 -0.499,-0.441 -1.066,-0.803 -1.701,-1.086 -0.636,-0.282 -1.374,-0.495 -2.213,-0.64 -0.84,-0.143 -1.851,-0.234 -3.035,-0.275 l -3.958,-0.134 z"
           id="path36"
           inkscape:connector-curvature="0"
           style="fill:#ffffff" /><path
           d="m 443.846,7.055 0.504,-0.221 2.551,5.817 -0.504,0.222 c -1.219,-1.137 -2.385,-1.928 -3.497,-2.378 -0.798,-0.306 -1.708,-0.484 -2.731,-0.532 -1.023,-0.05 -2.107,0.034 -3.254,0.252 -1.147,0.218 -2.252,0.56 -3.318,1.026 -0.797,0.35 -1.465,0.754 -2.008,1.214 -0.543,0.46 -0.949,0.967 -1.223,1.52 -0.193,0.395 -0.311,0.793 -0.351,1.197 -0.04,0.404 0.005,0.756 0.136,1.055 0.248,0.566 0.723,0.943 1.422,1.13 0.328,0.097 0.757,0.14 1.285,0.131 0.527,-0.009 1.184,-0.079 1.968,-0.21 0.784,-0.131 1.866,-0.346 3.246,-0.641 0.385,-0.063 0.644,-0.113 0.775,-0.151 l 0.769,-0.164 1.23,-0.249 c 2.082,-0.42 3.629,-0.664 4.641,-0.73 1.012,-0.066 1.939,0.024 2.78,0.273 0.647,0.17 1.214,0.452 1.702,0.847 0.486,0.394 0.861,0.888 1.119,1.478 0.256,0.584 0.363,1.233 0.323,1.951 -0.04,0.718 -0.236,1.42 -0.589,2.104 -0.44,0.928 -1.115,1.773 -2.021,2.537 -0.907,0.764 -2.027,1.439 -3.361,2.023 -0.932,0.408 -1.842,0.713 -2.732,0.914 -0.89,0.203 -2.018,0.352 -3.383,0.447 -0.882,0.078 -1.545,0.158 -1.988,0.242 -0.444,0.084 -0.844,0.203 -1.199,0.358 -0.682,0.299 -1.193,0.704 -1.535,1.216 -0.342,0.513 -0.468,1.082 -0.377,1.707 l -0.504,0.221 -3.438,-7.847 0.504,-0.221 c 0.812,1.304 2.033,2.275 3.662,2.913 0.974,0.365 2.114,0.601 3.426,0.707 1.312,0.105 2.616,0.063 3.917,-0.131 1.299,-0.193 2.473,-0.52 3.52,-0.978 0.932,-0.409 1.727,-0.911 2.385,-1.509 0.66,-0.598 1.105,-1.223 1.334,-1.873 0.23,-0.65 0.217,-1.268 -0.038,-1.852 -0.27,-0.615 -0.806,-1.041 -1.607,-1.278 -0.364,-0.101 -0.802,-0.151 -1.31,-0.151 -0.51,0.002 -1.145,0.054 -1.906,0.156 -0.764,0.102 -1.793,0.277 -3.092,0.528 l -1.582,0.303 c -2.471,0.476 -4.199,0.761 -5.188,0.854 -1.102,0.126 -1.994,0.158 -2.678,0.102 -0.683,-0.058 -1.327,-0.229 -1.933,-0.514 -0.88,-0.387 -1.489,-0.97 -1.829,-1.747 -0.412,-0.938 -0.451,-1.929 -0.116,-2.968 0.334,-1.039 1.004,-2.029 2.01,-2.973 1.005,-0.943 2.233,-1.732 3.684,-2.367 2.189,-0.959 4.685,-1.44 7.487,-1.443 0.979,-0.013 1.617,-0.084 1.914,-0.215 0.747,-0.327 1.08,-1.028 0.998,-2.102 z"
           id="path38"
           inkscape:connector-curvature="0"
           style="fill:#ffffff" /></g></g></g><g
     id="Layer_1"
     transform="translate(-277.06992,-130.64308)"><title
       id="title41">TwitterLogo_white</title><desc
       id="desc43">Created with Sketch.</desc><g
       id="Page-1"><g
         id="TwitterLogo_white"><path
           id="Fill-1"
           d="m 273.391,27.123 c -10.06,4.461 -20.869,7.476 -32.216,8.832 C 252.756,29.013 261.649,18.021 265.837,4.924 255,11.351 242.996,16.019 230.221,18.535 219.989,7.634 205.411,0.822 189.28,0.822 c -30.978,0 -56.091,25.113 -56.091,56.088 0,4.396 0.497,8.677 1.453,12.782 C 88.025,67.353 46.696,45.023 19.032,11.089 c -4.828,8.284 -7.594,17.919 -7.594,28.198 0,19.459 9.903,36.627 24.953,46.685 -9.195,-0.291 -17.843,-2.814 -25.406,-7.015 -0.004,0.234 -0.004,0.469 -0.004,0.705 0,27.176 19.334,49.846 44.993,54.998 -4.707,1.281 -9.662,1.967 -14.778,1.967 -3.614,0 -7.128,-0.352 -10.552,-1.006 7.137,22.284 27.851,38.5 52.395,38.953 -19.196,15.043 -43.381,24.01 -69.659,24.01 -4.527,0 -8.992,-0.266 -13.38,-0.783 C 24.822,213.715 54.305,223 85.98,223 c 103.168,0 159.584,-85.467 159.584,-159.586 0,-2.432 -0.055,-4.851 -0.162,-7.256 10.957,-7.908 20.468,-17.787 27.989,-29.035"
           inkscape:connector-curvature="0"
           style="fill:#ffffff" /></g></g></g></svg>